<svg width="77" height="24" viewBox="0 0 77 24" fill="none" xmlns="http://www.w3.org/2000/svg">
<path d="M0 4.0293H7.00838L11.9655 14.4564L16.8942 4.0293H23.9026V24.0003H18.1192V13.0604L14.1022 22.0631H9.80034L5.78334 13.0604V24.0003H0V4.0293Z" fill="black"/>
<path d="M25.197 4.02832H32.2624L36.3933 17.1334L40.4958 4.02832H47.2478L39.6126 23.9994H32.7752L25.197 4.02832Z" fill="black"/>
<path d="M55.0678 4.02832L60.9148 13.5347L54.6361 23.9994H46.9537L53.962 13.8571L47.381 4.02832H55.0678Z" fill="black"/>
<path d="M59.1278 6.87081L62.4051 13.2353L68.6625 4.02832H60.885L59.1278 6.87081Z" fill="black"/>
<path d="M62.3994 13.8456L59.0134 20.4294L61.3408 23.9994H69.2608L62.3994 13.8456Z" fill="black"/>
<path d="M69.7922 0H72.4247V0.661398H71.5049V3.07046H70.7033V0.661398H69.7922V0Z" fill="black"/>
<path d="M72.7499 0H73.6216L74.5108 1.79585L75.3955 0H76.2672V3.07046H75.5576L75.5532 1.12569L74.7692 2.76385H74.2523L73.4639 1.12569V3.07046H72.7499V0Z" fill="black"/>
</svg>
