<svg width="115" height="36" viewBox="0 0 115 36" fill="none" xmlns="http://www.w3.org/2000/svg">
<path d="M0 6.04346H10.5125L17.9482 21.6841L25.3412 6.04346H35.8537V35.9999H27.1787V19.5901L21.1533 33.094H14.7005L8.67498 19.5901V35.9999H0V6.04346Z" fill="#005ECD"/>
<path d="M37.7959 6.04297H48.3939L54.5903 25.7006L60.744 6.04297H70.8719L59.4192 35.9994H49.1631L37.7959 6.04297Z" fill="#F90000"/>
<path d="M82.6014 6.04297L91.3719 20.3025L81.9538 35.9994H70.4303L80.9428 20.7862L71.0713 6.04297H82.6014Z" fill="#FF8A00"/>
<path d="M88.6914 10.3067L93.6073 19.8534L102.993 6.04297H91.3271L88.6914 10.3067Z" fill="#FF8A00"/>
<path d="M93.5988 20.7688L88.5198 30.6446L92.0109 35.9994H103.891L93.5988 20.7688Z" fill="#FF8A00"/>
<path d="M104.688 0H108.637V0.992093H107.257V4.60568H106.055V0.992093H104.688V0Z" fill="#334353"/>
<path d="M109.125 0H110.432L111.766 2.69376L113.093 0H114.401V4.60568H113.336L113.33 1.68853L112.154 4.14577H111.379L110.196 1.68853V4.60568H109.125V0Z" fill="#334353"/>
</svg>
