<svg width="17" height="16" viewBox="0 0 17 16" fill="none" xmlns="http://www.w3.org/2000/svg">
<path d="M8.52585 3.87842C7.43792 3.87842 6.39456 4.31059 5.62528 5.07987C4.856 5.84915 4.42383 6.89251 4.42383 7.98044C4.42383 9.06836 4.856 10.1117 5.62528 10.881C6.39456 11.6503 7.43792 12.0825 8.52585 12.0825C9.61377 12.0825 10.6571 11.6503 11.4264 10.881C12.1957 10.1117 12.6279 9.06836 12.6279 7.98044C12.6279 6.89251 12.1957 5.84915 11.4264 5.07987C10.6571 4.31059 9.61377 3.87842 8.52585 3.87842ZM8.52585 10.6444C7.81907 10.6444 7.14125 10.3637 6.64148 9.86391C6.14172 9.36415 5.86095 8.68632 5.86095 7.97955C5.86095 7.27278 6.14172 6.59495 6.64148 6.09519C7.14125 5.59542 7.81907 5.31466 8.52585 5.31466C9.23262 5.31466 9.91045 5.59542 10.4102 6.09519C10.91 6.59495 11.1907 7.27278 11.1907 7.97955C11.1907 8.68632 10.91 9.36415 10.4102 9.86391C9.91045 10.3637 9.23262 10.6444 8.52585 10.6444Z" fill="#005ECD"/>
<path d="M12.7898 4.6841C13.318 4.6841 13.7461 4.25595 13.7461 3.72779C13.7461 3.19964 13.318 2.77148 12.7898 2.77148C12.2617 2.77148 11.8335 3.19964 11.8335 3.72779C11.8335 4.25595 12.2617 4.6841 12.7898 4.6841Z" fill="#005ECD"/>
<path d="M16.0964 2.75538C15.8911 2.22504 15.5772 1.74343 15.175 1.34137C14.7728 0.939308 14.2911 0.625656 13.7607 0.420492C13.14 0.187498 12.4843 0.0615135 11.8214 0.0479041C10.9671 0.0106453 10.6966 0 8.53024 0C6.36391 0 6.08624 -8.92285e-08 5.23904 0.0479041C4.57671 0.0608177 3.92146 0.186828 3.30159 0.420492C2.77103 0.625417 2.28918 0.938984 1.88693 1.34108C1.48469 1.74317 1.17094 2.2249 0.965813 2.75538C0.732772 3.37601 0.607077 4.03179 0.594112 4.69461C0.555966 5.54802 0.544434 5.81858 0.544434 7.98581C0.544434 10.1521 0.544434 10.428 0.594112 11.277C0.607419 11.9406 0.732502 12.5953 0.965813 13.2171C1.17152 13.7474 1.48557 14.2289 1.88791 14.631C2.29025 15.033 2.77204 15.3467 3.30247 15.552C3.92118 15.7944 4.5767 15.9294 5.24082 15.9512C6.09511 15.9885 6.36568 16 8.53201 16C10.6983 16 10.976 16 11.8232 15.9512C12.486 15.9377 13.1417 15.8121 13.7624 15.5795C14.2927 15.3739 14.7743 15.0599 15.1765 14.6578C15.5786 14.2556 15.8926 13.774 16.0982 13.2437C16.3315 12.6228 16.4566 11.9681 16.4699 11.3045C16.5081 10.4511 16.5196 10.1805 16.5196 8.01331C16.5196 5.84609 16.5196 5.57108 16.4699 4.72211C16.4596 4.04992 16.3332 3.38456 16.0964 2.75538ZM15.0159 11.2114C15.0102 11.7226 14.9169 12.2291 14.74 12.7088C14.6068 13.0538 14.4029 13.367 14.1413 13.6285C13.8797 13.8899 13.5664 14.0936 13.2213 14.2267C12.7469 14.4027 12.2458 14.496 11.7398 14.5026C10.8971 14.5416 10.6593 14.5513 8.4983 14.5513C6.33552 14.5513 6.11463 14.5513 5.2559 14.5026C4.75018 14.4964 4.24931 14.403 3.77531 14.2267C3.42905 14.0945 3.11441 13.8911 2.85172 13.6296C2.58904 13.3681 2.38416 13.0544 2.25036 12.7088C2.07599 12.2342 1.98272 11.7337 1.97446 11.2282C1.93632 10.3855 1.92745 10.1477 1.92745 7.98669C1.92745 5.8248 1.92745 5.6039 1.97446 4.74429C1.9802 4.23333 2.07351 3.72714 2.25036 3.24773C2.52093 2.54779 3.07537 1.9969 3.77531 1.72899C4.24955 1.55346 4.75027 1.46016 5.2559 1.45309C6.09955 1.41495 6.33641 1.4043 8.4983 1.4043C10.6602 1.4043 10.882 1.4043 11.7398 1.45309C12.2458 1.45918 12.747 1.55251 13.2213 1.72899C13.5663 1.8623 13.8797 2.06627 14.1412 2.32782C14.4028 2.58936 14.6067 2.9027 14.74 3.24773C14.9144 3.72229 15.0077 4.22281 15.0159 4.72832C15.0541 5.57197 15.0638 5.80883 15.0638 7.97073C15.0638 10.1317 15.0638 10.3642 15.0257 11.2122H15.0159V11.2114Z" fill="#005ECD"/>
</svg>
