<svg width="17" height="16" viewBox="0 0 17 16" fill="none" xmlns="http://www.w3.org/2000/svg">
<path d="M4.15837 16.0001H0.729797V4.57153H4.15837V16.0001ZM16.7298 16.0001H13.3012V9.89496C13.3012 8.3041 12.7344 7.5121 11.6109 7.5121C10.7207 7.5121 10.1561 7.95553 9.87265 8.84353V16.0001H6.44408C6.44408 16.0001 6.4898 5.71439 6.44408 4.57153H9.15037L9.35951 6.85725H9.43037C10.1332 5.71439 11.2567 4.93953 12.7972 4.93953C13.9687 4.93953 14.9161 5.26525 15.6395 6.08353C16.3675 6.90296 16.7298 8.00239 16.7298 9.54639V16.0001Z" fill="#005ECD"/>
<path d="M2.44404 3.42857C3.42237 3.42857 4.21546 2.66106 4.21546 1.71429C4.21546 0.767512 3.42237 0 2.44404 0C1.4657 0 0.672607 0.767512 0.672607 1.71429C0.672607 2.66106 1.4657 3.42857 2.44404 3.42857Z" fill="#005ECD"/>
</svg>
