<svg width="21" height="16" viewBox="0 0 21 16" fill="none" xmlns="http://www.w3.org/2000/svg">
<path d="M2.9096 3.26461C2.92185 3.14263 2.90514 3.01948 2.86082 2.90518C2.8165 2.79087 2.74583 2.68864 2.65456 2.6068L0.773577 0.340064V0H6.6163L11.1328 9.90436L15.103 0H20.6726V0.339001L19.0626 1.88098C18.9953 1.93346 18.9432 2.00303 18.9118 2.08245C18.8804 2.16188 18.8708 2.24826 18.8841 2.33263V13.6674C18.8706 13.7518 18.88 13.8382 18.9114 13.9177C18.9429 13.9971 18.9951 14.0667 19.0626 14.119L20.6344 15.661V16H12.7321V15.661L14.357 14.0808C14.5185 13.9214 14.5185 13.8735 14.5185 13.6302V4.46759L9.99249 15.9628H9.38144L4.11258 4.46759V12.1711C4.06901 12.4952 4.17634 12.8215 4.40482 13.0563L6.52172 15.6249V15.9639H0.519592V15.6249L2.63649 13.0563C2.74786 12.9403 2.83055 12.7998 2.87797 12.6461C2.92539 12.4924 2.93622 12.3297 2.9096 12.1711V3.26461Z" fill="#005ECD"/>
</svg>
