<svg width="39" height="39" viewBox="0 0 39 39" fill="none" xmlns="http://www.w3.org/2000/svg">
<circle cx="19.5" cy="19.5" r="19.5" fill="#FF8A00" fill-opacity="0.15"/>
<path d="M26.5 18.1667H24V12.3333C24 12.1123 23.9122 11.9004 23.7559 11.7441C23.5996 11.5878 23.3876 11.5 23.1666 11.5H11.5C11.2789 11.5 11.067 11.5878 10.9107 11.7441C10.7544 11.9004 10.6666 12.1123 10.6666 12.3333V24C10.6666 25.3783 11.7883 26.5 13.1666 26.5H24.8333C26.2116 26.5 27.3333 25.3783 27.3333 24V19C27.3333 18.779 27.2455 18.567 27.0892 18.4107C26.9329 18.2545 26.721 18.1667 26.5 18.1667ZM13.1666 24.8333C12.9456 24.8333 12.7337 24.7455 12.5774 24.5893C12.4211 24.433 12.3333 24.221 12.3333 24V13.1667H22.3333V24C22.3333 24.2925 22.3841 24.5733 22.4758 24.8333H13.1666ZM25.6666 24C25.6666 24.221 25.5788 24.433 25.4225 24.5893C25.2663 24.7455 25.0543 24.8333 24.8333 24.8333C24.6123 24.8333 24.4003 24.7455 24.244 24.5893C24.0878 24.433 24 24.221 24 24V19.8333H25.6666V24Z" fill="#FF8A00"/>
<path d="M14 14.8335H20.6667V16.5002H14V14.8335ZM14 18.1668H20.6667V19.8335H14V18.1668ZM18.1667 21.5002H20.6667V23.1668H18.1667V21.5002Z" fill="#FF8A00"/>
</svg>
