<svg width="39" height="39" viewBox="0 0 39 39" fill="none" xmlns="http://www.w3.org/2000/svg">
<path d="M8.5 28.0002H29.5V29.5002H8.5V28.0002ZM27.25 15.2502C27.4489 15.2502 27.6397 15.1712 27.7803 15.0305C27.921 14.8898 28 14.6991 28 14.5002V12.2502C27.9999 12.096 27.9524 11.9457 27.8638 11.8195C27.7752 11.6934 27.65 11.5976 27.505 11.5452L19.255 8.54517C19.0902 8.48559 18.9098 8.48559 18.745 8.54517L10.495 11.5452C10.35 11.5976 10.2248 11.6934 10.1362 11.8195C10.0476 11.9457 10.0001 12.096 10 12.2502V14.5002C10 14.6991 10.079 14.8898 10.2197 15.0305C10.3603 15.1712 10.5511 15.2502 10.75 15.2502H11.5V25.0002H10V26.5002H28V25.0002H26.5V15.2502H27.25ZM11.5 12.7752L19 10.0452L26.5 12.7752V13.7502H11.5V12.7752ZM20.5 25.0002H17.5V15.2502H20.5V25.0002ZM13 15.2502H16V25.0002H13V15.2502ZM25 25.0002H22V15.2502H25V25.0002Z" fill="#FF8A00"/>
<circle cx="19.5" cy="19.5" r="19.5" fill="#FF8A00" fill-opacity="0.15"/>
</svg>
