<svg width="39" height="39" viewBox="0 0 39 39" fill="none" xmlns="http://www.w3.org/2000/svg">
<circle cx="19.5" cy="19.5" r="19.5" fill="#005ECD" fill-opacity="0.15"/>
<path d="M18.25 9.25V10.75H15.25V13H12.25V17.4295L11.617 17.5705V17.5938C10.264 17.8862 9.59275 19.4537 10.3045 20.641L11.5 22.6562V26.383C11.1343 26.2803 10.7866 26.1222 10.4688 25.9142L9.53125 27.0858C9.53125 27.0858 10.6885 28 12.2733 28C13.369 28 14.0658 27.637 14.5 27.367C14.9365 27.634 15.6693 28 16.7733 28C17.869 28 18.5658 27.637 19 27.367C19.4365 27.634 20.1693 28 21.2733 28C22.369 28 23.0658 27.637 23.5 27.367C23.9365 27.634 24.6693 28 25.7733 28C27.3587 28 28.4688 27.0858 28.4688 27.0858L27.5312 25.9142C27.5312 25.9142 27.124 26.239 26.5 26.4062V22.6562L27.6955 20.6403C28.4072 19.4538 27.736 17.887 26.383 17.5938L25.75 17.4528V13H22.75V10.75H19.75V9.25H18.25ZM16.75 12.25H21.25V14.5H24.25V17.125L19.1642 16.0233L19 16L18.8358 16.0233L13.75 17.125V14.5H16.75V12.25ZM19 17.5472L26.0545 19.0472C26.4475 19.132 26.638 19.5243 26.4295 19.867L25.117 22.0705L25 22.234V26.383C24.6343 26.2803 24.2866 26.1222 23.9688 25.9142L23.5 25.5392L23.0312 25.9142C23.0312 25.9142 22.2782 26.5 21.2733 26.5C20.2683 26.5 19.4688 25.9142 19.4688 25.9142L19 25.5392L18.5312 25.9142C18.5312 25.9142 17.7782 26.5 16.7733 26.5C15.7682 26.5 14.9688 25.9142 14.9688 25.9142L14.5 25.5392L14.0312 25.9142C14.0312 25.9142 13.624 26.239 13 26.4062V22.234L12.883 22.0705L11.5705 19.867C11.362 19.522 11.5525 19.132 11.9455 19.0472L19 17.5472ZM15.25 19C14.7985 19 14.5 19.525 14.5 20.125C14.5 20.725 14.7985 21.25 15.25 21.25C15.7015 21.25 16 20.725 16 20.125C16 19.525 15.7015 19 15.25 19ZM22.75 19C22.2985 19 22 19.525 22 20.125C22 20.725 22.2985 21.25 22.75 21.25C23.2015 21.25 23.5 20.725 23.5 20.125C23.5 19.525 23.2015 19 22.75 19Z" fill="#1261BF"/>
</svg>
