<svg width="39" height="39" viewBox="0 0 39 39" fill="none" xmlns="http://www.w3.org/2000/svg">
<circle cx="19.5" cy="19.5" r="19.5" fill="#005ECD" fill-opacity="0.15"/>
<path d="M15 26C15.5304 26 16.0391 25.7893 16.4142 25.4142C16.7893 25.0391 17 24.5304 17 24C17 23.4696 16.7893 22.9609 16.4142 22.5858C16.0391 22.2107 15.5304 22 15 22C14.4696 22 13.9609 22.2107 13.5858 22.5858C13.2107 22.9609 13 23.4696 13 24C13 24.5304 13.2107 25.0391 13.5858 25.4142C13.9609 25.7893 14.4696 26 15 26V26ZM25 26C25.5304 26 26.0391 25.7893 26.4142 25.4142C26.7893 25.0391 27 24.5304 27 24C27 23.4696 26.7893 22.9609 26.4142 22.5858C26.0391 22.2107 25.5304 22 25 22C24.4696 22 23.9609 22.2107 23.5858 22.5858C23.2107 22.9609 23 23.4696 23 24C23 24.5304 23.2107 25.0391 23.5858 25.4142C23.9609 25.7893 24.4696 26 25 26V26Z" stroke="#1261BF" stroke-width="1.3" stroke-miterlimit="1.5" stroke-linecap="round" stroke-linejoin="round"/>
<path d="M17.05 24H22V13.6C22 13.4409 21.9368 13.2883 21.8243 13.1757C21.7117 13.0632 21.5591 13 21.4 13H8M12.65 24H10.6C10.5212 24 10.4432 23.9845 10.3704 23.9543C10.2976 23.9242 10.2315 23.88 10.1757 23.8243C10.12 23.7685 10.0758 23.7024 10.0457 23.6296C10.0155 23.5568 10 23.4788 10 23.4V18.5" stroke="#1261BF" stroke-width="1.3" stroke-linecap="round"/>
<path d="M9 16H13" stroke="#1261BF" stroke-width="1.3" stroke-linecap="round" stroke-linejoin="round"/>
<path d="M23 16H27.9088C28.0102 16 28.1095 16.0337 28.1946 16.0969C28.2797 16.16 28.347 16.25 28.3883 16.356L29.9545 20.384C29.9843 20.4605 29.9998 20.5433 30 20.627V23.4C30 23.4788 29.9864 23.5568 29.96 23.6296C29.9337 23.7024 29.895 23.7685 29.8462 23.8243C29.7975 23.88 29.7396 23.9242 29.6759 23.9543C29.6122 23.9845 29.5439 24 29.475 24H27.8125M23 24H22.875" stroke="#1261BF" stroke-width="1.3" stroke-linecap="round"/>
</svg>
