<svg width="21" height="16" viewBox="0 0 21 16" fill="none" xmlns="http://www.w3.org/2000/svg">
<path d="M18.1434 2.53462C19.0288 1.9911 19.6151 1.24923 19.9022 0.305733C19.0935 0.743082 18.2258 1.06089 17.3259 1.24923C16.5556 0.420794 15.5803 0 14.4111 0C13.2681 0 12.3027 0.401069 11.5148 1.18129C11.1343 1.55179 10.8335 1.99608 10.6307 2.48693C10.428 2.97779 10.3276 3.50487 10.3357 4.03589C10.3357 4.3745 10.3785 4.67694 10.4639 4.93336C7.0932 4.8183 4.30325 3.42004 2.10505 0.728717C1.73247 1.3873 1.54618 2.05794 1.54618 2.75159C1.54618 4.17725 2.14778 5.30703 3.3488 6.13657C2.66391 6.07849 2.06012 5.90535 1.54618 5.62153C1.54618 6.63955 1.84534 7.4899 2.44475 8.23834C3.02702 8.96765 3.84759 9.46852 4.7624 9.65304C4.4205 9.7407 4.05998 9.78234 3.68959 9.78234C3.3477 9.78234 3.10552 9.75385 2.96197 9.69139C3.21401 10.5209 3.68959 11.1938 4.37667 11.7088C5.0559 12.2245 5.88213 12.5098 6.73487 12.523C5.27524 13.6681 3.60631 14.2346 1.71822 14.2346C1.25579 14.2346 0.92814 14.2281 0.729797 14.193C2.5894 15.4006 4.65939 16 6.94965 16C9.29359 16 11.3647 15.4061 13.1673 14.2182C14.9699 13.0369 16.3002 11.5795 17.155 9.86343C18.0002 8.20296 18.4403 6.36594 18.4393 4.50271V3.98986C19.2271 3.409 19.9092 2.69693 20.4556 1.8848C19.7177 2.20463 18.9399 2.42321 18.1434 2.53462Z" fill="#005ECD"/>
</svg>
